# xmcd
#
# Track frame offsets:
#	150
#	4131
#	18298
#	32806
#	48485
#	60736
#	72572
#	81894
#	96139
#	113049
#	123684
#	139285
#	155900
#	168780
#	180664
#	190568
#	203068
#	214648
#	228375
#	243911
#	254989
#	261581
#	273743
#	288024
#	304484
#	326205
#
# Disc length: 4671 seconds
#
# Revision: 0
# Processed by: cddbd v1.5.2PL0 Copyright (c) Steve Scherf et al.
# Submitted via: audiograbber 1.83.01
#
DISCID=8d123d1a
DTITLE=Vlasta Pruchova - Na pocatku bylo blues
DYEAR=1900
DGENRE=Blues
TTITLE0=Lidi a vrany (fragment)
TTITLE1=Docela vsedni obycejny den
TTITLE2=Bubenicek
TTITLE3=Kdopak vi jak
TTITLE4=Nedelni vlacek
TTITLE5=Blues pro maleho chlapce
TTITLE6=Pisnicka do kapsy
TTITLE7=Na pocatku bylo blues
TTITLE8=Rozmarne stvoreni
TTITLE9=Dudy a basa
TTITLE10=Trpaslici
TTITLE11=Vsechny hvezdy na nebi
TTITLE12=Nas dedecek
TTITLE13=Vsechno je proste
TTITLE14=Ztraceny klicek
TTITLE15=Smooth sailing
TTITLE16=Prvni vychazka
TTITLE17=Az nam bude dvakrat tolik
TTITLE18=Cerna ukolebavka
TTITLE19=Pisnicka na konec
TTITLE20=Four Brothers
TTITLE21=The Man I Love
TTITLE22=Mesic bdi za tvuj dum
TTITLE23=Cerny kral
TTITLE24=Rozmarne stvoreni
TTITLE25=Data Track
EXTD=
EXTT0=
EXTT1=
EXTT2=
EXTT3=
EXTT4=
EXTT5=
EXTT6=
EXTT7=
EXTT8=
EXTT9=
EXTT10=
EXTT11=
EXTT12=
EXTT13=
EXTT14=
EXTT15=
EXTT16=
EXTT17=
EXTT18=
EXTT19=
EXTT20=
EXTT21=
EXTT22=
EXTT23=
EXTT24=
EXTT25=
PLAYORDER=
